<svg xmlns="http://www.w3.org/2000/svg" viewBox="0 0 720 760" role="img" aria-label="AI食事トレーナー">
  <defs>
    <linearGradient id="bg" x1="0" x2="1" y1="0" y2="1">
      <stop offset="0" stop-color="#f7f4ec"/>
      <stop offset="0.52" stop-color="#e8f0ea"/>
      <stop offset="1" stop-color="#fde0c8"/>
    </linearGradient>
    <linearGradient id="jacket" x1="0" x2="1">
      <stop offset="0" stop-color="#315d5a"/>
      <stop offset="1" stop-color="#3d766f"/>
    </linearGradient>
  </defs>
  <rect x="0" y="0" width="720" height="760" rx="52" fill="url(#bg)"/>
  <circle cx="560" cy="144" r="58" fill="#f2c14e" opacity=".85"/>
  <circle cx="128" cy="574" r="78" fill="#e36f4a" opacity=".18"/>
  <path d="M174 674c39-127 100-190 183-190 87 0 150 63 189 190z" fill="url(#jacket)"/>
  <path d="M263 506c22 42 43 63 65 63s46-22 74-65l-17-84H282z" fill="#f0b58e"/>
  <path d="M186 306c1-127 72-214 177-214 109 0 177 83 177 213 0 121-74 211-177 211-105 0-178-90-177-210z" fill="#f6c6a4"/>
  <path d="M188 292c19-115 88-184 181-184 95 0 153 65 171 172-47-29-97-43-151-43-82 0-151 18-201 55z" fill="#e36f4a"/>
  <path d="M254 196c64-97 173-85 242 7-80-18-159-13-242-7z" fill="#eb845a"/>
  <circle cx="294" cy="334" r="16" fill="#24312f"/>
  <circle cx="421" cy="334" r="16" fill="#24312f"/>
  <path d="M305 410c38 31 74 31 108 0" fill="none" stroke="#24312f" stroke-width="18" stroke-linecap="round"/>
  <path d="M218 302c-27 0-49 25-49 56 0 30 21 55 47 55" fill="#f6c6a4"/>
  <path d="M502 302c27 0 49 25 49 56 0 30-21 55-47 55" fill="#f6c6a4"/>
  <path d="M238 648h244" fill="none" stroke="#f7f4ec" stroke-width="18" stroke-linecap="round" opacity=".9"/>
  <path d="M273 610h174" fill="none" stroke="#f2c14e" stroke-width="14" stroke-linecap="round"/>
  <rect x="96" y="96" width="126" height="46" rx="23" fill="#315d5a"/>
  <text x="159" y="126" text-anchor="middle" font-family="Arial, sans-serif" font-size="24" font-weight="700" fill="#f7f4ec">OSHIKATSU</text>
</svg>
